<svg width="20" height="20" viewBox="0 0 20 20" fill="none" xmlns="http://www.w3.org/2000/svg">
<path fill-rule="evenodd" clip-rule="evenodd" d="M10 0C15.5228 0 20 4.47715 20 10C19.994 15.5204 15.5204 19.994 10 20C4.47715 20 0 15.5228 0 10C0 4.47715 4.47715 0 10 0ZM10.8333 13.3333C10.8335 13.6615 11.0263 13.9591 11.3258 14.0933C11.6242 14.2285 11.974 14.1763 12.22 13.96L15.97 10.6267C16.1419 10.4642 16.2393 10.2382 16.2393 10.0017C16.2393 9.76517 16.1419 9.53912 15.97 9.37667L12.22 6.04333C11.9746 5.82546 11.6243 5.77184 11.325 5.90637C11.0257 6.0409 10.8332 6.33854 10.8333 6.66667V8.54167C10.8333 8.65673 10.7401 8.75 10.625 8.75L4.58333 8.75C3.89298 8.75 3.33333 9.30964 3.33333 10C3.33333 10.6904 3.89298 11.25 4.58333 11.25L10.625 11.25C10.7401 11.25 10.8333 11.3433 10.8333 11.4583V13.3333Z" fill="black"/>
</svg>
