<svg width="56" height="56" viewBox="0 0 56 56" fill="none" xmlns="http://www.w3.org/2000/svg">
<circle opacity="0.1" cx="28" cy="28" r="28" fill="#FF9266"/>
<path d="M16.793 16.786C16.6055 16.9735 16.5001 17.2278 16.5 17.493V28.508C16.5 29.0603 16.9477 29.508 17.5 29.508H25.5C26.0523 29.508 26.5 29.0603 26.5 28.508V17.508C26.5 16.9557 26.0523 16.508 25.5 16.508L17.5 16.493C17.2348 16.493 16.9805 16.5984 16.793 16.786Z" fill="#FF784C"/>
<path d="M38.5 16.493L30.5 16.507C29.9477 16.507 29.5 16.9547 29.5 17.507V22.507C29.5 23.0593 29.9477 23.507 30.5 23.507H38.5C39.0523 23.507 39.5 23.0593 39.5 22.507V17.493C39.5 16.9407 39.0523 16.493 38.5 16.493Z" fill="#4C81FF"/>
<path d="M26.207 39.214C26.3945 39.0265 26.4999 38.7722 26.5 38.507V33.507C26.5 32.9547 26.0523 32.507 25.5 32.507H17.5C16.9477 32.507 16.5 32.9547 16.5 33.507V38.492C16.5 39.0442 16.9477 39.492 17.5 39.492L25.5 39.506C25.7651 39.5062 26.0193 39.4011 26.207 39.214Z" fill="#4C81FF"/>
<path d="M38.5 26.508H30.5C29.9477 26.508 29.5 26.9557 29.5 27.508V38.508C29.5 39.0603 29.9477 39.508 30.5 39.508L38.5 39.494C39.0523 39.494 39.5 39.0463 39.5 38.494V27.508C39.5 26.9557 39.0523 26.508 38.5 26.508Z" fill="#FF784C"/>
</svg>
