<svg width="18" height="18" viewBox="0 0 18 18" fill="none" xmlns="http://www.w3.org/2000/svg">
<path d="M3.90649 9.74999H12.284L8.62399 13.41C8.33149 13.7025 8.33149 14.1825 8.62399 14.475C8.91649 14.7675 9.38899 14.7675 9.68149 14.475L14.624 9.53249C14.9165 9.23999 14.9165 8.76749 14.624 8.47499L9.68899 3.52499C9.54887 3.38455 9.35863 3.30563 9.16024 3.30563C8.96186 3.30563 8.77162 3.38455 8.63149 3.52499C8.33899 3.81749 8.33899 4.28999 8.63149 4.58249L12.284 8.24999H3.90649C3.49399 8.24999 3.15649 8.58749 3.15649 8.99999C3.15649 9.41249 3.49399 9.74999 3.90649 9.74999Z" fill="white"/>
</svg>
