<svg width="17" height="14" viewBox="0 0 17 14" fill="none" xmlns="http://www.w3.org/2000/svg">
<path d="M6.40291 13.6864C6.16684 13.6868 5.94074 13.5913 5.77641 13.4218L0.588008 8.0927C0.00158852 7.48144 0.00158852 6.51646 0.588008 5.9052L5.77641 0.576099C6.1147 0.23638 6.66338 0.232156 7.00686 0.566627C7.35035 0.901097 7.36071 1.44969 7.03011 1.7969L2.20011 6.755C2.06671 6.89109 2.06671 7.1089 2.20011 7.245L7.03011 12.2024C7.2759 12.4548 7.3463 12.8301 7.20873 13.1545C7.07115 13.4788 6.75245 13.689 6.40011 13.6878L6.40291 13.6864Z" fill="#A0BAFA"/>
<path d="M10.3978 13.6864C10.0455 13.6876 9.72677 13.4774 9.5892 13.1531C9.45162 12.8287 9.52202 12.4534 9.76782 12.201L14.5978 7.2429C14.7312 7.1068 14.7312 6.88899 14.5978 6.7529L9.76782 1.7955C9.43721 1.44829 9.44758 0.899697 9.79106 0.565227C10.1345 0.230756 10.6832 0.23498 11.0215 0.574699L16.2092 5.9031C16.7956 6.51436 16.7956 7.47934 16.2092 8.0906L11.0208 13.4204C10.8576 13.5895 10.6329 13.6855 10.3978 13.6864Z" fill="#57619E"/>
</svg>
