<svg width="14" height="16" viewBox="0 0 14 16" fill="none" xmlns="http://www.w3.org/2000/svg">
<path d="M4.81199 9.86133C5.13019 10.1826 5.64661 10.1912 5.97532 9.88067L10.712 5.41733C10.9369 5.21518 11.0346 4.90708 10.9674 4.61226C10.9001 4.31745 10.6784 4.0822 10.3881 3.99756C10.0978 3.91292 9.78447 3.99219 9.56932 4.20467L5.42399 8.11067L4.41665 7.094C4.20841 6.8766 3.89911 6.78842 3.60754 6.86331C3.31597 6.93821 3.08745 7.16453 3.00976 7.45537C2.93206 7.74621 3.01727 8.05635 3.23265 8.26667L4.81199 9.86133Z" fill="#A0BAFA"/>
<path fill-rule="evenodd" clip-rule="evenodd" d="M1.29792 0H12.0346C12.7526 0.00257082 13.3333 0.585341 13.3333 1.30333V5.298C13.348 9.7431 10.9025 13.8316 6.97925 15.9213C6.78356 16.0254 6.54895 16.0254 6.35325 15.9213C2.42969 13.832 -0.0156716 9.74316 -7.84555e-05 5.298V1.30333C-0.000450454 0.585449 0.580041 0.00257165 1.29792 0ZM6.66659 14.5713C9.97795 12.6595 12.0127 9.12159 11.9999 5.298V1.64C11.9999 1.45591 11.8507 1.30667 11.6666 1.30667L1.66659 1.33333C1.57818 1.33333 1.4934 1.36845 1.43089 1.43096C1.36837 1.49348 1.33325 1.57826 1.33325 1.66667V5.298C1.31949 9.12185 3.35452 12.6603 6.66659 14.5713Z" fill="#57619E"/>
</svg>
