<svg width="16" height="16" viewBox="0 0 16 16" fill="none" xmlns="http://www.w3.org/2000/svg">
<path d="M14.6667 15.832H1.33333C0.873096 15.832 0.5 15.4589 0.5 14.9987C0.5 14.5384 0.873096 14.1653 1.33333 14.1653H14.6667C15.1269 14.1653 15.5 14.5384 15.5 14.9987C15.5 15.4589 15.1269 15.832 14.6667 15.832Z" fill="#A0BAFA"/>
<path d="M14.6667 1.832H1.33333C0.873096 1.832 0.5 1.4589 0.5 0.998666C0.5 0.538429 0.873096 0.165333 1.33333 0.165333H14.6667C15.1269 0.165333 15.5 0.538429 15.5 0.998666C15.5 1.4589 15.1269 1.832 14.6667 1.832Z" fill="#57619E"/>
<path d="M13.3333 6.49867H2.66668C2.20644 6.49867 1.83334 6.12557 1.83334 5.66533C1.83334 5.2051 2.20644 4.832 2.66668 4.832H13.3333C13.7936 4.832 14.1667 5.2051 14.1667 5.66533C14.1667 6.12557 13.7936 6.49867 13.3333 6.49867Z" fill="#A0BAFA"/>
<path d="M11.6667 11.1653H4.33333C3.8731 11.1653 3.5 10.7922 3.5 10.332C3.5 9.87176 3.8731 9.49866 4.33333 9.49866H11.6667C12.1269 9.49866 12.5 9.87176 12.5 10.332C12.5 10.7922 12.1269 11.1653 11.6667 11.1653Z" fill="#57619E"/>
</svg>
