<svg width="16" height="16" viewBox="0 0 16 16" fill="none" xmlns="http://www.w3.org/2000/svg">
<path fill-rule="evenodd" clip-rule="evenodd" d="M7.04001 4.16385C7.04001 1.86634 8.9025 0.00384521 11.2 0.00384521C13.4963 0.00666627 15.3572 1.86751 15.36 4.16385C15.36 6.46135 13.4975 8.32384 11.2 8.32384C8.9025 8.32384 7.04001 6.46135 7.04001 4.16385ZM9.17313 4.01793C9.17419 2.97979 10.0153 2.13838 11.0534 2.13697C11.2302 2.13697 11.3734 1.9937 11.3734 1.81697C11.3734 1.64023 11.2302 1.49697 11.0534 1.49697C9.662 1.49873 8.53454 2.62647 8.53313 4.01793C8.53313 4.19466 8.6764 4.33792 8.85313 4.33792C9.02986 4.33792 9.17313 4.19466 9.17313 4.01793Z" fill="#A0BAFA"/>
<path d="M6.36097 7.64481L0.280968 13.7248C0.1008 13.9049 -0.000427246 14.1491 -0.000427246 14.4038C-0.000427246 14.6586 0.1008 14.9028 0.280968 15.0829C0.660779 15.4462 1.25924 15.4462 1.63905 15.0829L7.71905 9.00289C8.09407 8.62786 8.09407 8.01983 7.71905 7.64481C7.34402 7.26978 6.73599 7.26978 6.36097 7.64481Z" fill="#57619E"/>
</svg>
